# xmcd CD database file
#
# Track frame offsets:
#	150
#	25622
#	40744
#	60930
#	80064
#	92200
#	106038
#	117486
#	136679
#	154917
#	166722
#	185012
#	208162
#
# Disc length: 2978 seconds
#
# Revision: 0
# Processed by: cddbd v1.5.2PL0 Copyright (c) Steve Scherf et al.
# Submitted via: CDex 1.51
#
DISCID=a10ba00d
DTITLE=Andy Griggs - Naked
DYEAR=2012
DGENRE=Country
TTITLE0=Andy Griggs - Old Timer
TTITLE1=Andy Griggs - Understanding Hank
TTITLE2=Heart Hush
TTITLE3=You And Cocaine
TTITLE4=Superman
TTITLE5=I Wonder Do You Think Of Me
TTITLE6=D'em Boyz
TTITLE7=Thrown Away
TTITLE8=Long Time Coming
TTITLE9=Angel Flying Too Close To The Ground
TTITLE10=Between An Old Memory And Me
TTITLE11=Blue Train
TTITLE12=Me On His Mind
EXTD=YEAR: 2012
EXTT0=
EXTT1=
EXTT2=
EXTT3=
EXTT4=
EXTT5=
EXTT6=
EXTT7=
EXTT8=
EXTT9=
EXTT10=
EXTT11=
EXTT12=
PLAYORDER=
